<?xml version="1.0" standalone="no"?>
<!DOCTYPE svg PUBLIC "-//W3C//DTD SVG 20010904//EN"
 "http://www.w3.org/TR/2001/REC-SVG-20010904/DTD/svg10.dtd">
<svg version="1.0" xmlns="http://www.w3.org/2000/svg"
 width="71.000000pt" height="71.000000pt" viewBox="0 0 71.000000 71.000000"
 preserveAspectRatio="xMidYMid meet">

<g transform="translate(0.000000,71.000000) scale(0.100000,-0.100000)"
fill="#000000" stroke="none">
<path d="M246 521 c-22 -22 -50 -41 -64 -43 -38 -5 -51 -51 -24 -87 12 -16 25
-59 32 -107 24 -152 37 -164 175 -164 133 0 141 7 170 160 10 47 23 92 29 100
34 40 24 100 -17 100 -14 0 -39 16 -62 40 -40 41 -65 51 -65 27 0 -8 9 -22 20
-32 11 -10 20 -22 20 -27 0 -4 -43 -8 -95 -8 -52 0 -95 4 -95 8 0 5 9 17 20
27 11 10 20 24 20 32 0 24 -25 14 -64 -26z m306 -83 c13 -35 -1 -38 -187 -38
-158 0 -184 2 -189 16 -3 9 -4 20 0 25 9 15 371 12 376 -3z m-32 -75 c0 -35
-36 -182 -48 -195 -12 -15 -32 -18 -107 -18 -58 0 -98 5 -108 13 -12 8 -22 41
-32 102 -8 50 -15 93 -15 98 0 4 70 7 155 7 85 0 155 -3 155 -7z"/>
<path d="M405 308 c-9 -24 -2 -93 10 -93 14 0 19 85 6 98 -7 7 -12 5 -16 -5z"/>
<path d="M300 266 c0 -30 5 -46 15 -50 12 -4 15 4 15 44 0 38 -4 50 -15 50
-11 0 -15 -12 -15 -44z"/>
</g>
</svg>
