<?xml version="1.0" standalone="no"?>
<!DOCTYPE svg PUBLIC "-//W3C//DTD SVG 20010904//EN"
 "http://www.w3.org/TR/2001/REC-SVG-20010904/DTD/svg10.dtd">
<svg version="1.0" xmlns="http://www.w3.org/2000/svg"
 width="349.000000pt" height="349.000000pt" viewBox="0 0 349.000000 349.000000"
 preserveAspectRatio="xMidYMid meet">

<g transform="translate(0.000000,349.000000) scale(0.100000,-0.100000)"
fill="#000000" stroke="none">
<path d="M1753 3016 c-17 -8 -258 -162 -534 -343 -471 -307 -503 -331 -521
-370 -18 -40 -18 -80 -16 -805 3 -850 -1 -794 71 -838 31 -19 55 -20 629 -20
559 0 598 1 606 18 22 42 29 42 -584 42 -618 0 -631 1 -648 45 -3 9 -6 356 -6
770 l0 754 23 24 c34 38 1004 667 1028 667 11 0 177 -88 369 -196 192 -108
357 -194 367 -192 12 2 18 12 18 28 0 22 -37 46 -350 222 -192 108 -366 199
-385 202 -21 4 -48 0 -67 -8z"/>
<path d="M2164 2606 c-75 -33 -99 -125 -47 -186 14 -17 37 -36 50 -41 l23 -9
-2 -262 -3 -263 -290 -5 c-266 -5 -290 -6 -293 -22 -3 -17 16 -18 297 -18 299
0 300 0 315 22 14 19 16 64 16 285 l0 262 35 17 c93 44 86 180 -11 220 -41 17
-50 17 -90 0z m103 -58 c67 -63 -13 -167 -95 -124 -47 25 -56 75 -21 120 27
34 82 36 116 4z"/>
<path d="M2744 2051 c-40 -18 -74 -67 -74 -105 0 -37 31 -87 65 -107 l36 -21
-3 -112 -3 -111 -677 -3 c-593 -2 -678 -4 -678 -17 0 -13 85 -15 688 -15 522
0 691 3 700 12 8 8 12 51 12 128 l0 116 35 17 c39 19 75 69 75 105 0 34 -28
88 -54 105 -38 25 -78 28 -122 8z m107 -50 c34 -27 32 -86 -5 -117 -15 -13
-38 -24 -50 -24 -31 0 -72 34 -80 65 -7 27 15 80 36 88 29 12 77 6 99 -12z"/>
<path d="M2800 1453 c-21 -11 -42 -33 -53 -55 l-19 -38 -674 0 c-667 0 -674 0
-674 -20 0 -20 7 -20 678 -20 l677 0 12 -28 c17 -37 62 -62 112 -62 51 0 107
45 117 95 17 94 -89 172 -176 128z m106 -47 c58 -49 25 -140 -50 -140 -60 0
-97 54 -76 110 22 57 79 71 126 30z"/>
<path d="M1572 1103 c3 -17 30 -18 348 -23 l345 -5 3 -135 c2 -112 5 -137 19
-147 10 -8 49 -13 100 -13 69 0 83 -3 83 -16 0 -26 55 -72 95 -80 48 -9 98 14
125 58 53 87 -17 189 -121 175 -46 -6 -99 -50 -99 -82 0 -12 -16 -15 -80 -15
l-80 0 0 128 c0 99 -3 132 -16 150 l-15 22 -355 0 c-333 0 -355 -1 -352 -17z
m1073 -244 c29 -28 27 -95 -4 -120 -53 -43 -131 -8 -131 58 0 19 5 43 11 54
22 42 85 46 124 8z"/>
</g>
</svg>
