<?xml version="1.0" standalone="no"?>
<!DOCTYPE svg PUBLIC "-//W3C//DTD SVG 20010904//EN"
 "http://www.w3.org/TR/2001/REC-SVG-20010904/DTD/svg10.dtd">
<svg version="1.0" xmlns="http://www.w3.org/2000/svg"
 width="76.000000pt" height="76.000000pt" viewBox="0 0 76.000000 76.000000"
 preserveAspectRatio="xMidYMid meet">

<g transform="translate(0.000000,76.000000) scale(0.100000,-0.100000)"
fill="#000000" stroke="none">
<path d="M303 577 c-32 -30 -36 -39 -36 -82 0 -43 4 -52 36 -82 102 -93 249
27 177 145 -38 62 -120 71 -177 19z m126 -7 c25 -13 45 -64 37 -95 -24 -96
-166 -80 -169 19 -1 30 5 44 27 62 28 25 74 31 105 14z"/>
<path d="M335 341 c-76 -19 -129 -68 -141 -129 -7 -33 13 -55 22 -25 31 101
120 148 222 118 56 -17 92 -50 101 -96 4 -18 13 -35 20 -37 26 -9 6 77 -26
110 -46 49 -133 75 -198 59z"/>
</g>
</svg>
